<svg preserveAspectRatio="none" overflow="visible" style="display: block;" width="87.5" height="74.8575" viewBox="0 0 87.5 74.8575" fill="none" xmlns="http://www.w3.org/2000/svg">
<g id="Group 1948761912">
<path id="Vector 146" d="M54.4541 15.9941L66.232 10.1051C66.4068 10.0177 66.6034 9.98342 66.7975 10.0065L84.4734 12.1108C85.4324 12.225 85.6864 13.4938 84.8428 13.9642C79.5839 16.8965 72.3376 20.8087 72 20.4711C71.6581 20.1292 61.7953 18.789 54.7739 17.8864C53.7925 17.7603 53.5691 16.4365 54.4541 15.9941Z" stroke="white" stroke-width="2" stroke-linejoin="round"/>
<path id="Vector 145" d="M2.36184 6.46812L10.7089 1.15634C10.8975 1.03633 11.1209 0.982962 11.3434 1.00477L33.6668 3.19335C34.6072 3.28554 34.9069 4.51006 34.1155 5.02619L25.3045 10.7725C25.1078 10.9008 24.8722 10.9558 24.6391 10.9278L2.77957 8.30466C1.84669 8.19271 1.56916 6.97255 2.36184 6.46812Z" stroke="white" stroke-width="2" stroke-linejoin="round"/>
<path id="Vector 147" d="M2 10.9711L2.98365 58.1861C2.99325 58.6469 3.31656 59.0415 3.7665 59.1414L24.9641 63.852C25.2979 63.9262 25.6464 63.8247 25.8882 63.5829L33.7115 55.7597C33.8964 55.5747 34.0015 55.3246 34.0043 55.0631L34.5 7.97111" stroke="white" stroke-width="2" stroke-linecap="round" stroke-linejoin="round" stroke-dasharray="2.5 5"/>
<path id="Vector 148" d="M25 60.9711V12.9711" stroke="white" stroke-width="2" stroke-linecap="round" stroke-linejoin="round" stroke-dasharray="2.5 5"/>
<path id="Vector 149" d="M53.5 19.9711L54.4852 67.2601C54.4941 67.6858 54.7715 68.0592 55.1765 68.1905L72.4991 73.8087C72.8126 73.9103 73.1561 73.851 73.4174 73.6501L85.6046 64.2753C85.8536 64.0838 85.9981 63.7864 85.9948 63.4722L85.5 15.9711" stroke="white" stroke-width="2" stroke-linecap="round" stroke-linejoin="round" stroke-dasharray="2.5 5"/>
<path id="Vector 150" d="M72.5 70.9711V22.9711" stroke="white" stroke-width="2" stroke-linecap="round" stroke-linejoin="round" stroke-dasharray="2.5 5"/>
</g>
</svg>
