<svg preserveAspectRatio="none" overflow="visible" style="display: block;" width="33.3732" height="23.7404" viewBox="0 0 33.3732 23.7404" fill="none" xmlns="http://www.w3.org/2000/svg">
<g id="Union">
<path d="M20.6607 10.2404C20.9369 10.2405 21.1607 10.4643 21.1607 10.7404V12.7404C21.1607 13.0166 20.9369 13.2404 20.6607 13.2404H12.1861C11.9102 13.2402 11.6871 13.0164 11.6871 12.7404V10.7404C11.6871 10.4643 11.911 10.2404 12.1871 10.2404H20.6607Z" fill="black"/>
<path fill-rule="evenodd" clip-rule="evenodd" d="M23.8248 0.05295C24.1196 -0.0942881 24.474 0.0794064 24.5387 0.402559L24.6676 1.04416C25.0082 2.7473 26.1694 4.32684 27.5934 5.60764C29.0133 6.88476 30.5772 7.75919 31.5201 8.09201L33.0396 8.62815C33.503 8.79163 33.4772 9.45607 33.0025 9.58322L28.0572 10.9074C27.8386 10.966 27.6871 11.1645 27.6871 11.3908V21.2404C27.6871 21.5166 27.911 21.7404 28.1871 21.7404H29.8121C30.088 21.7407 30.3121 21.9645 30.3121 22.2404V23.2404C30.3121 23.5164 30.088 23.7402 29.8121 23.7404H3.31114C3.03522 23.7402 2.81211 23.5164 2.81211 23.2404V22.2404C2.81211 21.9643 3.03597 21.7404 3.31211 21.7404H5.18614C5.46228 21.7404 5.68711 21.5166 5.68711 21.2404V11.3908C5.68711 11.1645 5.53462 10.966 5.31602 10.9074L0.370706 9.58322C-0.103929 9.45607 -0.129782 8.79163 0.333596 8.62815L1.8541 8.09201C2.79718 7.75905 4.36103 6.88469 5.78086 5.60764C7.20471 4.32686 8.36603 2.74723 8.70664 1.04416L8.83457 0.402559C8.89925 0.0794065 9.25361 -0.0942878 9.54844 0.05295L10.1344 0.345919C11.0125 0.784715 13.8603 1.24045 16.6871 1.24045C19.5142 1.2404 22.3622 0.78475 23.2398 0.345919L23.8248 0.05295ZM10.8131 2.73752C10.5478 2.66514 10.2639 2.79851 10.1549 3.051C9.46566 4.64696 8.31609 6.01688 7.11875 7.09397C6.71664 7.45565 6.30087 7.79147 5.88535 8.09787C5.53586 8.3559 5.62681 8.92089 6.04649 9.03342L7.31602 9.37326C7.53457 9.43186 7.68711 9.63039 7.68711 9.85666V21.2404C7.68711 21.5166 7.91097 21.7404 8.18711 21.7404H25.1861C25.4623 21.7404 25.6871 21.5166 25.6871 21.2404V9.85666C25.6871 9.63039 25.8387 9.43186 26.0572 9.37326L27.3268 9.03342C27.7464 8.92089 27.8374 8.3559 27.4879 8.09787C27.0725 7.79154 26.6575 7.45556 26.2555 7.09397C25.058 6.01684 23.9076 4.64708 23.2184 3.051C23.1093 2.79851 22.8255 2.66514 22.5602 2.73752C21.051 3.14922 18.8741 3.24044 16.6871 3.24045C14.5 3.24045 12.3224 3.14925 10.8131 2.73752Z" fill="black"/>
</g>
</svg>
