<svg preserveAspectRatio="none" overflow="visible" style="display: block;" width="24" height="24" viewBox="0 0 24 24" fill="none" xmlns="http://www.w3.org/2000/svg">
<path id="Subtract" d="M1.7 17C1.86569 17 2 17.1343 2 17.3V20C2 21.1046 2.89543 22 4 22H7.2C7.36569 22 7.5 22.1343 7.5 22.3V23.7C7.5 23.8657 7.36569 24 7.2 24H4C1.85996 24 0.112115 22.3194 0.00488281 20.2061L0 20V17.3C0 17.1343 0.134315 17 0.3 17H1.7ZM24 20L23.9951 20.2061C23.8913 22.2512 22.2512 23.8913 20.2061 23.9951L20 24H17.8C17.6343 24 17.5 23.8657 17.5 23.7V22.3C17.5 22.1343 17.6343 22 17.8 22H20C21.1046 22 22 21.1046 22 20V17.3C22 17.1343 22.1343 17 22.3 17H23.7C23.8657 17 24 17.1343 24 17.3V20ZM20.2061 0.00488281C22.3194 0.112115 24 1.85996 24 4V5.7C24 5.86569 23.8657 6 23.7 6H22.3C22.1343 6 22 5.86569 22 5.7V4C22 2.89543 21.1046 2 20 2H17.8C17.6343 2 17.5 1.86569 17.5 1.7V0.3C17.5 0.134315 17.6343 0 17.8 0H20L20.2061 0.00488281ZM7.5 1.7C7.5 1.86569 7.36569 2 7.2 2H4C2.89543 2 2 2.89543 2 4V5.7C2 5.86569 1.86569 6 1.7 6H0.3C0.134315 6 0 5.86569 0 5.7V4C2.57706e-07 1.79086 1.79086 6.44256e-08 4 0H7.2C7.36569 0 7.5 0.134315 7.5 0.3V1.7Z" fill="black"/>
</svg>
